{"accessors":[{"bufferView":0,"byteOffset":0,"componentType":5126,"count":171,"max":[16.54068,8.184589,36.213898],"min":[-10.13932,-0.09541,9.617451],"normalized":false,"type":"VEC3"},{"bufferView":1,"byteOffset":0,"componentType":5126,"count":171,"max":[0.966281,0.000168,0.000046,1],"min":[-1,-1,-1,1],"normalized":false,"type":"VEC4"},{"bufferView":2,"byteOffset":0,"componentType":5126,"count":171,"max":[1,1,0.000015],"min":[-1,-1,-1],"normalized":false,"type":"VEC3"},{"bufferView":3,"byteOffset":0,"componentType":5126,"count":171,"max":[1,1],"min":[0,0],"normalized":false,"type":"VEC2"},{"bufferView":4,"byteOffset":0,"componentType":5125,"count":171,"max":[170],"min":[0],"normalized":false,"type":"SCALAR"},{"bufferView":5,"byteOffset":0,"componentType":5126,"count":165,"max":[-22.564999,5.0389,86.476997],"min":[-41.419323,2.82202,43.873901],"normalized":false,"type":"VEC3"},{"bufferView":6,"byteOffset":0,"componentType":5126,"count":165,"max":[0.025787,0.000153,1,-1],"min":[-1,-1,-1,-1],"normalized":false,"type":"VEC4"},{"bufferView":7,"byteOffset":0,"componentType":5126,"count":165,"max":[1,1,1],"min":[-1,-1,-1],"normalized":false,"type":"VEC3"},{"bufferView":8,"byteOffset":0,"componentType":5126,"count":165,"max":[1,1],"min":[0,0],"normalized":false,"type":"VEC2"},{"bufferView":9,"byteOffset":0,"componentType":5125,"count":165,"max":[164],"min":[0],"normalized":false,"type":"SCALAR"},{"bufferView":10,"byteOffset":0,"componentType":5126,"count":144,"max":[-32.971992,3.80981,43.917465],"min":[-41.56501,2.80981,34.986732],"normalized":false,"type":"VEC3"},{"bufferView":11,"byteOffset":0,"componentType":5126,"count":144,"max":[0.000214,0.000031,0.000932,-1],"min":[-1,-1,-1,-1],"normalized":false,"type":"VEC4"},{"bufferView":12,"byteOffset":0,"componentType":5126,"count":144,"max":[1,1,1],"min":[-1,-1,-1],"normalized":false,"type":"VEC3"},{"bufferView":13,"byteOffset":0,"componentType":5126,"count":144,"max":[1,1],"min":[0,0],"normalized":false,"type":"VEC2"},{"bufferView":14,"byteOffset":0,"componentType":5125,"count":144,"max":[143],"min":[0],"normalized":false,"type":"SCALAR"},{"bufferView":15,"byteOffset":0,"componentType":5126,"count":75,"max":[-14.394165,3.783976,43.892857],"min":[-33.191635,-0.064331,38.636997],"normalized":false,"type":"VEC3"},{"bufferView":16,"byteOffset":0,"componentType":5126,"count":75,"max":[0.003094,0.207169,0.002802,1],"min":[-0.981416,-0.979209,-1,-1],"normalized":false,"type":"VEC4"},{"bufferView":17,"byteOffset":0,"componentType":5126,"count":75,"max":[0.202848,0.979215,1],"min":[-0.979223,-0.979217,-0.000054],"normalized":false,"type":"VEC3"},{"bufferView":18,"byteOffset":0,"componentType":5126,"count":75,"max":[1,1],"min":[0,0],"normalized":false,"type":"VEC2"},{"bufferView":19,"byteOffset":0,"componentType":5125,"count":75,"max":[74],"min":[0],"normalized":false,"type":"SCALAR"},{"bufferView":20,"byteOffset":0,"componentType":5126,"count":162,"max":[36.278751,6.718911,51.621101],"min":[19.647049,-0.064332,38.637001],"normalized":false,"type":"VEC3"},{"bufferView":21,"byteOffset":0,"componentType":5126,"count":162,"max":[0.0001,0.99996,0.024202,1],"min":[-1,-1,-1,-1],"normalized":false,"type":"VEC4"},{"bufferView":22,"byteOffset":0,"componentType":5126,"count":162,"max":[1,1,1],"min":[-1,-0.000015,-0.000015],"normalized":false,"type":"VEC3"},{"bufferView":23,"byteOffset":0,"componentType":5126,"count":162,"max":[1,1],"min":[0,0],"normalized":false,"type":"VEC2"},{"bufferView":24,"byteOffset":0,"componentType":5125,"count":162,"max":[161],"min":[0],"normalized":false,"type":"SCALAR"},{"bufferView":25,"byteOffset":0,"componentType":5126,"count":708,"max":[34.647041,9.04053,88.50605],"min":[-11.386343,-0.95947,-20.382549],"normalized":false,"type":"VEC3"},{"bufferView":26,"byteOffset":0,"componentType":5126,"count":708,"max":[0.000993,0.016503,0.347246,1],"min":[-1,-1,-1,-1],"normalized":false,"type":"VEC4"},{"bufferView":27,"byteOffset":0,"componentType":5126,"count":708,"max":[1,1,1],"min":[-1,-1,-1],"normalized":false,"type":"VEC3"},{"bufferView":28,"byteOffset":0,"componentType":5126,"count":708,"max":[1,1],"min":[0,0],"normalized":false,"type":"VEC2"},{"bufferView":29,"byteOffset":0,"componentType":5125,"count":708,"max":[707],"min":[0],"normalized":false,"type":"SCALAR"},{"bufferView":30,"byteOffset":0,"componentType":5126,"count":186,"max":[36.278751,6.718915,86.451897],"min":[19.647053,-0.064331,74.451889],"normalized":false,"type":"VEC3"},{"bufferView":31,"byteOffset":0,"componentType":5126,"count":186,"max":[0.000092,0.000046,0.051958,-1],"min":[-1,-1,-1,-1],"normalized":false,"type":"VEC4"},{"bufferView":32,"byteOffset":0,"componentType":5126,"count":186,"max":[1,1,1],"min":[-1,-0.000031,-1],"normalized":false,"type":"VEC3"},{"bufferView":33,"byteOffset":0,"componentType":5126,"count":186,"max":[1,1],"min":[0,0],"normalized":false,"type":"VEC2"},{"bufferView":34,"byteOffset":0,"componentType":5125,"count":186,"max":[185],"min":[0],"normalized":false,"type":"SCALAR"},{"bufferView":35,"byteOffset":0,"componentType":5126,"count":342,"max":[48.20068,8.544591,87.097008],"min":[-41.79932,-2.45541,37.097],"normalized":false,"type":"VEC3"},{"bufferView":36,"byteOffset":0,"componentType":5126,"count":342,"max":[0.001589,0.038579,0.034732,1],"min":[-1,-1,-1,-1],"normalized":false,"type":"VEC4"},{"bufferView":37,"byteOffset":0,"componentType":5126,"count":342,"max":[1,1,1],"min":[-1,-1,-1],"normalized":false,"type":"VEC3"},{"bufferView":38,"byteOffset":0,"componentType":5126,"count":342,"max":[1,1],"min":[0,0],"normalized":false,"type":"VEC2"},{"bufferView":39,"byteOffset":0,"componentType":5125,"count":342,"max":[341],"min":[0],"normalized":false,"type":"SCALAR"},{"bufferView":40,"byteOffset":0,"componentType":5126,"count":807,"max":[47.820679,8.215672,86.477005],"min":[-41.419323,-0.064332,38.637001],"normalized":false,"type":"VEC3"},{"bufferView":41,"byteOffset":0,"componentType":5126,"count":807,"max":[0.981649,0.140179,0.999948,1],"min":[-1,-1,-1,-1],"normalized":false,"type":"VEC4"},{"bufferView":42,"byteOffset":0,"componentType":5126,"count":807,"max":[1,1,1],"min":[-1,-1,-1],"normalized":false,"type":"VEC3"},{"bufferView":43,"byteOffset":0,"componentType":5126,"count":807,"max":[1,1],"min":[0,0],"normalized":false,"type":"VEC2"},{"bufferView":44,"byteOffset":0,"componentType":5125,"count":807,"max":[806],"min":[0],"normalized":false,"type":"SCALAR"},{"bufferView":45,"byteOffset":0,"componentType":5126,"count":48,"max":[16.953661,8.180531,7.873899],"min":[-9.726341,-0.09947,-18.722549],"normalized":false,"type":"VEC3"},{"bufferView":46,"byteOffset":0,"componentType":5126,"count":48,"max":[0.000015,0,0.000382,1],"min":[-1,-1,-1,1],"normalized":false,"type":"VEC4"},{"bufferView":47,"byteOffset":0,"componentType":5126,"count":48,"max":[1,1,1],"min":[-1,-1,-0.000015],"normalized":false,"type":"VEC3"},{"bufferView":48,"byteOffset":0,"componentType":5126,"count":48,"max":[1,1],"min":[0,0],"normalized":false,"type":"VEC2"},{"bufferView":49,"byteOffset":0,"componentType":5125,"count":48,"max":[47],"min":[0],"normalized":false,"type":"SCALAR"},{"bufferView":50,"byteOffset":0,"componentType":5126,"count":987,"max":[48.20068,5.46564,82.882164],"min":[-6.440201,-0.09947,7.52285],"normalized":false,"type":"VEC3"},{"bufferView":51,"byteOffset":0,"componentType":5126,"count":987,"max":[1,0.80568,1,1],"min":[-1,-1,-1,-1],"normalized":false,"type":"VEC4"},{"bufferView":52,"byteOffset":0,"componentType":5126,"count":987,"max":[1,1,1],"min":[-1,-1,-1],"normalized":false,"type":"VEC3"},{"bufferView":53,"byteOffset":0,"componentType":5126,"count":987,"max":[1,1],"min":[0,0],"normalized":false,"type":"VEC2"},{"bufferView":54,"byteOffset":0,"componentType":5125,"count":987,"max":[986],"min":[0],"normalized":false,"type":"SCALAR"},{"bufferView":55,"byteOffset":0,"componentType":5126,"count":126,"max":[75.142197,-0.094348,81.7491],"min":[48.20068,-2.094351,40.913101],"normalized":false,"type":"VEC3"},{"bufferView":56,"byteOffset":0,"componentType":5126,"count":126,"max":[0.990601,0.000065,0.990607,1],"min":[-1,-0.00004,-0.99061,-1],"normalized":false,"type":"VEC4"},{"bufferView":57,"byteOffset":0,"componentType":5126,"count":126,"max":[0.990607,1,1],"min":[-0.382713,-1,-0.990604],"normalized":false,"type":"VEC3"},{"bufferView":58,"byteOffset":0,"componentType":5126,"count":126,"max":[1,1],"min":[0,0],"normalized":false,"type":"VEC2"},{"bufferView":59,"byteOffset":0,"componentType":5125,"count":126,"max":[125],"min":[0],"normalized":false,"type":"SCALAR"},{"bufferView":60,"byteOffset":0,"componentType":5126,"count":174,"max":[18.20068,8.54459,37.873901],"min":[-11.79932,-0.45541,7.873898],"normalized":false,"type":"VEC3"},{"bufferView":61,"byteOffset":0,"componentType":5126,"count":174,"max":[0.003245,0,0.000443,-1],"min":[-1,-1,-1,-1],"normalized":false,"type":"VEC4"},{"bufferView":62,"byteOffset":0,"componentType":5126,"count":174,"max":[1,1,-0.000015],"min":[-1,-1,-1],"normalized":false,"type":"VEC3"},{"bufferView":63,"byteOffset":0,"componentType":5126,"count":174,"max":[1,1],"min":[0,0],"normalized":false,"type":"VEC2"},{"bufferView":64,"byteOffset":0,"componentType":5125,"count":174,"max":[173],"min":[0],"normalized":false,"type":"SCALAR"}],"asset":{"generator":"Godot Engine v4.2.2.stable.official@15073afe3856abd2aa1622492fe50026c7d63dc1","version":"2.0"},"bufferViews":[{"buffer":0,"byteLength":2052,"byteOffset":0},{"buffer":0,"byteLength":2736,"byteOffset":2052},{"buffer":0,"byteLength":2052,"byteOffset":4788},{"buffer":0,"byteLength":1368,"byteOffset":6840},{"buffer":0,"byteLength":684,"byteOffset":8208},{"buffer":0,"byteLength":1980,"byteOffset":8892},{"buffer":0,"byteLength":2640,"byteOffset":10872},{"buffer":0,"byteLength":1980,"byteOffset":13512},{"buffer":0,"byteLength":1320,"byteOffset":15492},{"buffer":0,"byteLength":660,"byteOffset":16812},{"buffer":0,"byteLength":1728,"byteOffset":17472},{"buffer":0,"byteLength":2304,"byteOffset":19200},{"buffer":0,"byteLength":1728,"byteOffset":21504},{"buffer":0,"byteLength":1152,"byteOffset":23232},{"buffer":0,"byteLength":576,"byteOffset":24384},{"buffer":0,"byteLength":900,"byteOffset":24960},{"buffer":0,"byteLength":1200,"byteOffset":25860},{"buffer":0,"byteLength":900,"byteOffset":27060},{"buffer":0,"byteLength":600,"byteOffset":27960},{"buffer":0,"byteLength":300,"byteOffset":28560},{"buffer":0,"byteLength":1944,"byteOffset":28860},{"buffer":0,"byteLength":2592,"byteOffset":30804},{"buffer":0,"byteLength":1944,"byteOffset":33396},{"buffer":0,"byteLength":1296,"byteOffset":35340},{"buffer":0,"byteLength":648,"byteOffset":36636},{"buffer":0,"byteLength":8496,"byteOffset":37284},{"buffer":0,"byteLength":11328,"byteOffset":45780},{"buffer":0,"byteLength":8496,"byteOffset":57108},{"buffer":0,"byteLength":5664,"byteOffset":65604},{"buffer":0,"byteLength":2832,"byteOffset":71268},{"buffer":0,"byteLength":2232,"byteOffset":74100},{"buffer":0,"byteLength":2976,"byteOffset":76332},{"buffer":0,"byteLength":2232,"byteOffset":79308},{"buffer":0,"byteLength":1488,"byteOffset":81540},{"buffer":0,"byteLength":744,"byteOffset":83028},{"buffer":0,"byteLength":4104,"byteOffset":83772},{"buffer":0,"byteLength":5472,"byteOffset":87876},{"buffer":0,"byteLength":4104,"byteOffset":93348},{"buffer":0,"byteLength":2736,"byteOffset":97452},{"buffer":0,"byteLength":1368,"byteOffset":100188},{"buffer":0,"byteLength":9684,"byteOffset":101556},{"buffer":0,"byteLength":12912,"byteOffset":111240},{"buffer":0,"byteLength":9684,"byteOffset":124152},{"buffer":0,"byteLength":6456,"byteOffset":133836},{"buffer":0,"byteLength":3228,"byteOffset":140292},{"buffer":0,"byteLength":576,"byteOffset":143520},{"buffer":0,"byteLength":768,"byteOffset":144096},{"buffer":0,"byteLength":576,"byteOffset":144864},{"buffer":0,"byteLength":384,"byteOffset":145440},{"buffer":0,"byteLength":192,"byteOffset":145824},{"buffer":0,"byteLength":11844,"byteOffset":146016},{"buffer":0,"byteLength":15792,"byteOffset":157860},{"buffer":0,"byteLength":11844,"byteOffset":173652},{"buffer":0,"byteLength":7896,"byteOffset":185496},{"buffer":0,"byteLength":3948,"byteOffset":193392},{"buffer":0,"byteLength":1512,"byteOffset":197340},{"buffer":0,"byteLength":2016,"byteOffset":198852},{"buffer":0,"byteLength":1512,"byteOffset":200868},{"buffer":0,"byteLength":1008,"byteOffset":202380},{"buffer":0,"byteLength":504,"byteOffset":203388},{"buffer":0,"byteLength":2088,"byteOffset":203892},{"buffer":0,"byteLength":2784,"byteOffset":205980},{"buffer":0,"byteLength":2088,"byteOffset":208764},{"buffer":0,"byteLength":1392,"byteOffset":210852},{"buffer":0,"byteLength":696,"byteOffset":212244}],"buffers":[{"byteLength":212940,"uri":"main_map_mesh0.bin"}],"extensions":{"KHR_lights_punctual":{"lights":[{"color":[1,1,1],"intensity":1,"range":340282346638528860000000000000000000000,"type":"directional"},{"color":[1,1,1],"intensity":7.49599981307983,"range":62.0299987792969,"type":"point"}]}},"extensionsRequired":["KHR_texture_transform"],"extensionsUsed":["GODOT_single_root","KHR_lights_punctual","KHR_texture_transform"],"images":[{"uri":"textures%2F_albedo000.png"},{"uri":"textures%2F_albedo002.png"},{"uri":"textures%2F_albedo003.png"},{"uri":"textures%2F_albedo004.png"},{"uri":"textures%2F_albedo005.png"},{"uri":"textures%2F_albedo006.png"},{"uri":"textures%2F_albedo007.png"},{"uri":"textures%2F_albedo008.png"},{"uri":"textures%2F_albedo009.png"},{"uri":"textures%2F_albedo010.png"},{"uri":"textures%2F_albedo011.png"},{"uri":"textures%2F_albedo012.png"}],"materials":[{"extensions":{},"pbrMetallicRoughness":{"baseColorFactor":[0.99999988079071,0.99999988079071,0.99999988079071,1],"baseColorTexture":{"index":0},"metallicFactor":0,"roughnessFactor":1}},{"extensions":{},"pbrMetallicRoughness":{"baseColorFactor":[0.99999988079071,0.99999988079071,0.99999988079071,1],"baseColorTexture":{"index":1},"metallicFactor":0,"roughnessFactor":1}},{"extensions":{},"pbrMetallicRoughness":{"baseColorFactor":[0.99999988079071,0.99999988079071,0.99999988079071,1],"baseColorTexture":{"index":2},"metallicFactor":0,"roughnessFactor":1}},{"extensions":{},"pbrMetallicRoughness":{"baseColorFactor":[0.99999988079071,0.99999988079071,0.99999988079071,1],"baseColorTexture":{"index":3},"metallicFactor":0,"roughnessFactor":1}},{"extensions":{},"pbrMetallicRoughness":{"baseColorFactor":[0.99999988079071,0.99999988079071,0.99999988079071,1],"baseColorTexture":{"extensions":{"KHR_texture_transform":{"scale":[0.964999973773956,0.964999973773956]}},"index":4},"metallicFactor":0,"roughnessFactor":1}},{"extensions":{},"pbrMetallicRoughness":{"baseColorFactor":[0.99999988079071,0.99999988079071,0.99999988079071,1],"baseColorTexture":{"extensions":{"KHR_texture_transform":{"scale":[0.939999997615814,0.939999997615814]}},"index":5},"metallicFactor":0,"roughnessFactor":1}},{"extensions":{},"pbrMetallicRoughness":{"baseColorFactor":[0.99999988079071,0.99999988079071,0.99999988079071,1],"baseColorTexture":{"index":6},"metallicFactor":0,"roughnessFactor":1}},{"extensions":{},"pbrMetallicRoughness":{"baseColorFactor":[0.99999988079071,0.99999988079071,0.99999988079071,1],"baseColorTexture":{"index":7},"metallicFactor":0,"roughnessFactor":1}},{"extensions":{},"pbrMetallicRoughness":{"baseColorFactor":[0.99999988079071,0.99999988079071,0.99999988079071,1],"baseColorTexture":{"index":8},"metallicFactor":0,"roughnessFactor":1}},{"extensions":{},"pbrMetallicRoughness":{"baseColorFactor":[0.99999988079071,0.99999988079071,0.99999988079071,1],"baseColorTexture":{"index":9},"metallicFactor":0,"roughnessFactor":1}},{"extensions":{},"pbrMetallicRoughness":{"baseColorFactor":[0.99999988079071,0.99999988079071,0.99999988079071,1],"baseColorTexture":{"index":10},"metallicFactor":0,"roughnessFactor":1}},{"extensions":{},"pbrMetallicRoughness":{"baseColorFactor":[0.99999988079071,0.99999988079071,0.99999988079071,1],"baseColorTexture":{"index":11},"metallicFactor":0,"roughnessFactor":1}},{"extensions":{},"pbrMetallicRoughness":{"baseColorFactor":[0.99999988079071,0.99999988079071,0.99999988079071,1],"metallicFactor":0,"roughnessFactor":1}}],"meshes":[{"extras":{"targetNames":[]},"primitives":[{"attributes":{"NORMAL":2,"POSITION":0,"TANGENT":1,"TEXCOORD_0":3},"indices":4,"material":0,"mode":4},{"attributes":{"NORMAL":7,"POSITION":5,"TANGENT":6,"TEXCOORD_0":8},"indices":9,"material":1,"mode":4},{"attributes":{"NORMAL":12,"POSITION":10,"TANGENT":11,"TEXCOORD_0":13},"indices":14,"material":2,"mode":4},{"attributes":{"NORMAL":17,"POSITION":15,"TANGENT":16,"TEXCOORD_0":18},"indices":19,"material":3,"mode":4},{"attributes":{"NORMAL":22,"POSITION":20,"TANGENT":21,"TEXCOORD_0":23},"indices":24,"material":4,"mode":4},{"attributes":{"NORMAL":27,"POSITION":25,"TANGENT":26,"TEXCOORD_0":28},"indices":29,"material":5,"mode":4},{"attributes":{"NORMAL":32,"POSITION":30,"TANGENT":31,"TEXCOORD_0":33},"indices":34,"material":6,"mode":4},{"attributes":{"NORMAL":37,"POSITION":35,"TANGENT":36,"TEXCOORD_0":38},"indices":39,"material":7,"mode":4},{"attributes":{"NORMAL":42,"POSITION":40,"TANGENT":41,"TEXCOORD_0":43},"indices":44,"material":8,"mode":4},{"attributes":{"NORMAL":47,"POSITION":45,"TANGENT":46,"TEXCOORD_0":48},"indices":49,"material":9,"mode":4},{"attributes":{"NORMAL":52,"POSITION":50,"TANGENT":51,"TEXCOORD_0":53},"indices":54,"material":10,"mode":4},{"attributes":{"NORMAL":57,"POSITION":55,"TANGENT":56,"TEXCOORD_0":58},"indices":59,"material":11,"mode":4},{"attributes":{"NORMAL":62,"POSITION":60,"TANGENT":61,"TEXCOORD_0":63},"indices":64,"material":12,"mode":4}]}],"nodes":[{"children":[1,2,28],"extensions":{},"name":"map"},{"extensions":{"KHR_lights_punctual":{"light":0}},"name":"DirectionalLight3D","rotation":[-0.75667560100555,0,0,0.653790473937988],"translation":[0,17.3498001098633,0]},{"children":[3],"extensions":{},"name":"NavigationRegion3D","translation":[-2.25131988525391,0,14.4707002639771]},{"children":[4,6,7,8,9,10,12,13,15,17,19,20,21,22,23,24,25,26,27],"extensions":{},"mesh":0,"name":"CSGCombiner3D2"},{"children":[5],"extensions":{},"name":"room2","translation":[3.20068001747131,4.04458999633789,22.8738994598389]},{"extensions":{},"name":"room_subtract","scale":[0.920000016689301,0.920000016689301,0.920000016689301]},{"extensions":{},"name":"upper_floor","translation":[-32.064998626709,3.32202005386353,65.3515014648438]},{"extensions":{},"name":"upper_floor2","rotation":[-0.70710676908493,0,0,0.70710676908493],"translation":[-29.0827007293701,4.31464004516602,44.3821983337402]},{"extensions":{},"name":"upper_connector","translation":[-37.2685012817383,3.309809923172,39.4520988464355]},{"extensions":{},"name":"ramp","rotation":[0,0,-0.10195073485374,0.99478942155838],"translation":[-23.7877006530762,1.37088000774384,41.1641998291016]},{"children":[11],"extensions":{},"name":"small_house","translation":[27.9629001617432,3.13175010681152,45.1211013793945]},{"extensions":{},"name":"subtract","translation":[0.184143006801605,-0.58715802431107,0]},{"extensions":{},"name":"roof","translation":[20.3418998718262,7.22981023788452,63.0733985900879]},{"children":[14],"extensions":{},"name":"small_house2","translation":[27.9629001617432,3.13175010681152,80.4518966674805]},{"extensions":{},"name":"subtract2","translation":[0.184143006801605,-0.58715802431107,0]},{"children":[16],"extensions":{},"name":"room3","translation":[3.20068001747131,3.04458999633789,62.0970001220703]},{"extensions":{},"name":"room_subtract2","scale":[0.920000016689301,0.920000016689301,0.920000016689301],"translation":[-0.00000047683699,1.0310800075531,0.459998995065689]},{"children":[18],"extensions":{},"name":"room","translation":[3.61366009712219,4.04053020477295,-5.38254976272583]},{"extensions":{},"name":"room_subtract3","scale":[0.920000016689301,0.920000016689301,0.920000016689301]},{"extensions":{},"name":"doorway_medium","scale":[0.920000016689301,0.920000016689301,0.920000016689301],"translation":[10.2423000335693,1.74053001403809,37.5429992675781]},{"extensions":{},"name":"doorway_medium4","scale":[0.920000016689301,0.920000016689301,0.920000016689301],"translation":[-2.76020002365112,1.74053001403809,37.5429992675781]},{"extensions":{},"name":"doorway_medium2","scale":[0.920000016689301,0.920000016689301,0.920000016689301],"translation":[3.50728011131287,1.74053001403809,8.90285015106201]},{"extensions":{},"name":"doorway_medium8","rotation":[0,0.70710676908493,0,0.70710676908493],"scale":[0.778688013553619,0.778688013553619,0.778688013553619],"translation":[35.2252998352051,1.48973000049591,79.7674026489258]},{"extensions":{},"name":"doorway_medium7","scale":[0.846400022506714,0.846400022506714,0.846400022506714],"translation":[30.5897998809814,1.62644994258881,75.2935028076172]},{"extensions":{},"name":"doorway_medium5","scale":[0.920000016689301,0.920000016689301,0.920000016689301],"translation":[27.3269996643066,1.7661999464035,50.467098236084]},{"extensions":{},"name":"doorway_medium6","rotation":[0,0.70710676908493,0,0.70710676908493],"scale":[0.920000016689301,0.920000016689301,0.920000016689301],"translation":[34.986499786377,1.77684998512268,44.4700012207031]},{"extensions":{},"name":"doorway_medium3","rotation":[0,0.70710676908493,0,0.70710676908493],"scale":[0.920000016689301,0.920000016689301,0.920000016689301],"translation":[48.2938995361328,2.70564007759094,61.1896018981934]},{"extensions":{},"name":"balcony","translation":[54.7242012023926,-1.09434998035431,61.3311004638672]},{"extensions":{"KHR_lights_punctual":{"light":1}},"name":"OmniLight3D","translation":[0,4.44160985946655,61.377799987793]}],"samplers":[{"magFilter":9729,"minFilter":9987,"wrapS":10497,"wrapT":10497}],"scene":0,"scenes":[{"nodes":[0]}],"textures":[{"sampler":0,"source":0},{"sampler":0,"source":1},{"sampler":0,"source":2},{"sampler":0,"source":3},{"sampler":0,"source":4},{"sampler":0,"source":5},{"sampler":0,"source":6},{"sampler":0,"source":7},{"sampler":0,"source":8},{"sampler":0,"source":9},{"sampler":0,"source":10},{"sampler":0,"source":11}]}